<svg xmlns="http://www.w3.org/2000/svg" viewBox="0 0 29.38 28"><defs><style>.cls-1,.cls-2{fill:none;}.cls-2{stroke:#000;stroke-linecap:round;stroke-linejoin:round;stroke-width:0;}</style></defs><title>Asset 1</title><g id="Layer_2" data-name="Layer 2"><g id="Layer_1-2" data-name="Layer 1"><path class="cls-1" d="M14.69,2.26c-1.07,0-2.91,2.8-3.34,7.43H18C17.6,5.06,15.76,2.26,14.69,2.26Z"/><path d="M27.56,9.69H20.87C20.44,4.61,18.34,0,14.69,0S8.94,4.61,8.51,9.69H1.82C.51,9.69,0,9.85,0,10L1.28,27.65c0,.19.24.35.54.35H27.56c.3,0,.54-.16.54-.35L29.38,10C29.38,9.85,28.87,9.69,27.56,9.69ZM14.69,2.26c1.07,0,2.91,2.8,3.34,7.43H11.35C11.78,5.06,13.62,2.26,14.69,2.26ZM7.81,9.9h0Zm3.52,0h0Zm9.57,0h0Z"/><line class="cls-2" x1="21.57" y1="9.9" x2="20.89" y2="9.9"/><line class="cls-2" x1="11.32" y1="9.9" x2="18.06" y2="9.9"/><line class="cls-2" x1="7.81" y1="9.9" x2="8.49" y2="9.9"/></g></g></svg>