<svg xmlns="http://www.w3.org/2000/svg" viewBox="0 0 22.68 22.68"><defs><style>.cls-1{fill:none;}</style></defs><title>Asset 1</title><g id="Layer_2" data-name="Layer 2"><g id="Layer_1-2" data-name="Layer 1"><circle class="cls-1" cx="10.76" cy="10.76" r="6.46" transform="translate(-4.46 10.76) rotate(-45)"/><path d="M18.37,3.15a10.76,10.76,0,1,0-1.42,16.4l-1.2-1.2,2.61-2.61,1.2,1.2A10.77,10.77,0,0,0,18.37,3.15Zm-3,12.18a6.46,6.46,0,1,1,0-9.13A6.47,6.47,0,0,1,15.32,15.32Z"/><path d="M15.74,18.35l1.2,1.2,2.55,2.55h0l0,0a1.84,1.84,0,0,0,2.61-2.61l0,0h0l-2.55-2.55-1.2-1.2Z"/></g></g></svg>