<svg id="Layer_1" data-name="Layer 1" xmlns="http://www.w3.org/2000/svg" viewBox="0 0 60 60"><defs><style>.cls-1{fill:#fff;}</style></defs><title>Vector Smart Object</title><path class="cls-1" d="M913.64,130.23a30,30,0,1,1,30-30A30,30,0,0,1,913.64,130.23Zm0-56.1a26.1,26.1,0,1,0,26.1,26.1A26.13,26.13,0,0,0,913.64,74.12Z" transform="translate(-883.64 -70.23)"/><path class="cls-1" d="M913.64,81.63a14,14,0,0,0-14.07,14,13.84,13.84,0,0,0,2.11,7.34,2.63,2.63,0,0,0,.33.6l11.22,15.07a.49.49,0,0,0,.78,0l11.23-15.08,0,0a13.86,13.86,0,0,0,2.46-7.89A14,14,0,0,0,913.64,81.63Zm0,21.89a7.9,7.9,0,1,1,7.95-7.9A7.92,7.92,0,0,1,913.64,103.52Z" transform="translate(-883.64 -70.23)"/></svg>