<svg id="Layer_1" data-name="Layer 1" xmlns="http://www.w3.org/2000/svg" viewBox="0 0 26 21.66667"><defs><style>.cls-1{fill:#212121;}</style></defs><title>menu-icon</title><path class="cls-1" d="M23.56219,0H2.43781A2.46949,2.46949,0,0,0,0,2.5,2.46949,2.46949,0,0,0,2.43781,5H23.56219A2.46949,2.46949,0,0,0,26,2.5,2.46949,2.46949,0,0,0,23.56219,0Z"/><path class="cls-1" d="M23.56219,8.33333H2.43781a2.50079,2.50079,0,0,0,0,5H23.56219a2.50079,2.50079,0,0,0,0-5Z"/><path class="cls-1" d="M23.56219,16.66667H2.43781a2.50079,2.50079,0,0,0,0,5H23.56219a2.50079,2.50079,0,0,0,0-5Z"/></svg>